PathFileType	4	(X/Y/Z)	E:\Qualisys_Data\Carbon_Farble_Plate\Data\Amateur_Runner\S2\T2\S2T2V13_c3d.trc
DataRate	CameraRate	NumFrames	NumMarkers	Units	OrigDataRate	OrigDataStartFrame	OrigNumFrames
200.000000	200.000000	4	39	mm	200.000000	0	325
Frame#	Time	LSHO			RSHO			LICST			RICST			LASIS			LHEEL			RASIS			LTROC			RTROC			SACR			LTH1			LSK4			LTH2			LTH3			RHM5			LSK2			LTH4			RTH1			LTOE			RTH2			RTH3			RTH4			LLEP			RLEP			LSK1			LSK3			RSK1			LHM5			RSK2			LFT1			RSK3			RSK4			LLME			RLME			RTOE			RHEEL			RFT1			RFT2			LFT2			
		X1	Y1	Z1	X2	Y2	Z2	X3	Y3	Z3	X4	Y4	Z4	X5	Y5	Z5	X6	Y6	Z6	X7	Y7	Z7	X8	Y8	Z8	X9	Y9	Z9	X10	Y10	Z10	X11	Y11	Z11	X12	Y12	Z12	X13	Y13	Z13	X14	Y14	Z14	X15	Y15	Z15	X16	Y16	Z16	X17	Y17	Z17	X18	Y18	Z18	X19	Y19	Z19	X20	Y20	Z20	X21	Y21	Z21	X22	Y22	Z22	X23	Y23	Z23	X24	Y24	Z24	X25	Y25	Z25	X26	Y26	Z26	X27	Y27	Z27	X28	Y28	Z28	X29	Y29	Z29	X30	Y30	Z30	X31	Y31	Z31	X32	Y32	Z32	X33	Y33	Z33	X34	Y34	Z34	X35	Y35	Z35	X36	Y36	Z36	X37	Y37	Z37	X38	Y38	Z38	X39	Y39	Z39	

1	0	-2336.35400390625	1537.12255859375	-415.2826232910156	-2372.808349609375	1518.731323242188	-118.1108169555664	-2393.34130859375	1066.780151367188	-415.9654846191406	-2373.26416015625	1058.820434570312	-120.4965438842773	-2344.90478515625	1011.309753417969	-406.4933776855469	-2865.705322265625	355.2803955078125	-312.1556091308594	-2318.037353515625	1011.013305664062	-152.9113464355469	-2494.84326171875	964.9371948242188	-412.811279296875	-2447.241943359375	957.0944213867188	-100.1430969238281	-2478.732666015625	1107.511108398438	-266.5768432617188	-2461.03662109375	719.7772216796875	-430.1217956542969	-2763.08056640625	458.9823303222656	-398.8889465332031	-2538.658203125	747.8158569335938	-421.09033203125	-2495.897705078125	624.06494140625	-414.0061645507812	-2126.96533203125	145.68798828125	-106.0884780883789	-2693.90771484375	529.8629760742188	-411.631103515625	-2573.2998046875	655.5430297851562	-398.9677429199219	-2253.643798828125	729.46142578125	-109.4461898803711	-2840.794189453125	107.9853973388672	-339.0894775390625	-2326.59521484375	707.1655883789062	-103.8405609130859	-2227.199462890625	633.5921020507812	-130.2229614257812	-2303.807373046875	614.4620971679688	-120.2352676391602	-2565.18115234375	588.9255981445312	-406.1941223144531	-2264.195556640625	575.1152954101562	-122.4481506347656	-2638.71044921875	474.93701171875	-414.8259582519531	-2708.2705078125	403.10400390625	-407.9787902832031	-2225.010986328125	456.0377807617188	-114.8967666625977	-2879.7001953125	158.7683410644531	-385.7541809082031	-2304.43310546875	452.2104187011719	-102.7314376831055	-2884.282470703125	339.7754211425781	-282.5642700195312	-2220.7421875	353.8094482421875	-121.5763549804688	-2300.43212890625	353.5531616210938	-112.2899398803711	-2857.34619140625	300.0008544921875	-375.3471069335938	-2246.658447265625	161.3634185791016	-141.2354125976562	-2061.1943359375	188.5403594970703	-160.4574584960938	-2300.494873046875	128.8230438232422	-199.7767639160156	-2274.598388671875	106.6194686889648	-228.4447326660156	-2289.91064453125	99.46574401855469	-174.2763824462891	-2905.033935546875	345.8515930175781	-332.5057067871094
2	0.005	-2320.498046875	1536.721313476562	-414.31494140625	-2357.203857421875	1517.390258789062	-117.0498962402344	-2377.536865234375	1066.394653320312	-415.8251342773438	-2357.498779296875	1057.63818359375	-120.331916809082	-2329.389404296875	1010.996459960938	-406.3719787597656	-2853.991943359375	360.136474609375	-310.80517578125	-2302.263427734375	1009.130981445312	-153.0990295410156	-2478.86865234375	964.1897583007812	-413.1867065429688	-2430.879150390625	955.0813598632812	-100.0757446289062	-2462.537353515625	1106.443725585938	-265.9187622070312	-2442.525390625	718.6845092773438	-429.4914855957031	-2748.12646484375	462.8802795410156	-398.790771484375	-2520.45947265625	746.6129150390625	-421.5939025878906	-2477.076904296875	622.9191284179688	-413.2618103027344	-2102.63916015625	148.0036773681641	-105.3042068481445	-2677.7880859375	532.1805419921875	-412.9594116210938	-2554.6865234375	653.9019165039062	-399.4763488769531	-2239.5830078125	725.9591064453125	-110.0356292724609	-2831.115966796875	113.1993713378906	-341.2276916503906	-2313.89208984375	705.301025390625	-103.3539428710938	-2212.848876953125	630.374755859375	-129.4963226318359	-2291.014892578125	611.455322265625	-119.6975708007812	-2548.561767578125	589.089599609375	-407.5488586425781	-2249.91796875	573.0385131835938	-122.3726119995117	-2623.97021484375	476.0466613769531	-415.870361328125	-2695.56494140625	405.4048461914062	-408.7192077636719	-2208.73779296875	455.0040588378906	-115.0434265136719	-2870.400390625	164.9832000732422	-387.9443054199219	-2287.537109375	449.6817321777344	-102.97802734375	-2873.058837890625	344.674072265625	-281.4181213378906	-2201.52197265625	353.2325744628906	-121.9420394897461	-2281.004150390625	351.3765563964844	-112.8152847290039	-2846.41455078125	305.8170471191406	-375.009765625	-2223.4140625	160.3393096923828	-141.7088317871094	-2039.02197265625	191.2971343994141	-160.1511535644531	-2277.257080078125	126.1990051269531	-200.5749053955078	-2250.063232421875	104.5930328369141	-229.0973815917969	-2265.446533203125	97.1611785888672	-174.5590057373047	-2893.514404296875	351.6002502441406	-331.5128479003906
3	0.01	-2304.41259765625	1536.297607421875	-413.310791015625	-2341.71337890625	1516.148559570312	-115.9457244873047	-2361.75	1065.724365234375	-415.5450134277344	-2341.7861328125	1055.89501953125	-120.1796417236328	-2312.861328125	1010.498779296875	-406.2312622070312	-2842.43017578125	364.7578430175781	-310.067626953125	-2285.6142578125	1007.955017089844	-152.7157287597656	-2462.691162109375	963.3013916015624	-414.0278625488281	-2415.86767578125	952.9881591796876	-100.4299774169922	-2447.5263671875	1105.793579101562	-265.7264404296875	-2424.01318359375	716.9759521484375	-428.7707824707031	-2733.2705078125	466.3850708007812	-399.6849670410156	-2502.27978515625	744.868896484375	-422.4416198730469	-2457.12646484375	620.1592407226562	-412.9632873535156	-2081.134521484375	149.3668518066406	-104.8845977783203	-2660.812744140625	533.538818359375	-413.6589965820312	-2535.503662109375	651.2474365234375	-400.3438415527344	-2223.90576171875	723.36572265625	-107.2037963867188	-2821.45263671875	119.0426177978516	-343.3798828125	-2298.734619140625	702.5938110351562	-101.8599014282227	-2198.972412109375	626.3988037109375	-128.4770050048828	-2276.82373046875	609.1555786132812	-118.9152069091797	-2529.84375	586.7457885742188	-408.2823181152344	-2236.5673828125	571.102783203125	-122.0924835205078	-2608.188232421875	475.5800170898438	-416.3699035644531	-2682.531982421875	408.0082702636719	-409.4028930664062	-2192.619384765625	454.5251159667969	-115.2057342529297	-2860.039794921875	171.6418609619141	-389.5393676757812	-2271.769775390625	447.3692932128906	-103.5620346069336	-2861.578369140625	349.03857421875	-280.24560546875	-2183.916259765625	352.6295166015625	-122.40380859375	-2263.272216796875	349.2056274414062	-112.9624252319336	-2835.184814453125	311.7546081542969	-374.6452026367188	-2201.98779296875	159.1665191650391	-142.3657073974609	-2018.047973632812	193.9735260009766	-159.9956817626953	-2254.445556640625	123.6797790527344	-201.6900177001953	-2226.823974609375	102.9452438354492	-230.2738952636719	-2243.105712890625	95.39194488525392	-176.5448303222656	-2881.821533203125	357.4786071777344	-331.1723022460938
4	0.015	-2288.547119140625	1534.90673828125	-412.3909606933594	-2325.904541015625	1514.227905273438	-114.8702392578125	-2346.484130859375	1065.297485351562	-415.3559875488281	-2325.560302734375	1053.769409179688	-119.9600982666016	-2297.007568359375	1009.682006835938	-405.8070373535156	-2830.7939453125	370.4254455566406	-308.4824523925781	-2270.609375	1006.308471679688	-152.5364837646484	-2446.752197265625	961.7321166992188	-414.600830078125	-2400.775390625	950.951416015625	-100.9358673095703	-2431.862548828125	1104.199096679688	-265.366455078125	-2404.510986328125	714.6049194335938	-427.6184692382812	-2717.36962890625	469.6041259765625	-399.6689758300781	-2483.640380859375	742.3668212890625	-422.809326171875	-2438.509033203125	618.5638427734375	-412.4911804199219	-2061.059326171875	150.7716674804688	-105.5463104248047	-2643.4248046875	535.1131591796875	-414.2673950195312	-2516.643310546875	648.9190673828125	-401.5086059570312	-2209.4072265625	719.7434692382812	-105.9878158569336	-2811.2587890625	124.5909118652344	-345.4007263183594	-2284.417236328125	699.8974609375	-100.6984405517578	-2184.3955078125	623.4644775390625	-126.9730606079102	-2263.6171875	606.3948364257812	-119.2066040039062	-2511.674072265625	584.797119140625	-408.9084167480469	-2221.99462890625	568.4310302734375	-121.4067535400391	-2592.587158203125	475.1541748046875	-416.7583618164062	-2668.856689453125	410.1887512207031	-409.4165344238281	-2176.548095703125	453.2359619140625	-115.6081008911133	-2849.439208984375	178.2010803222656	-391.5501708984375	-2255.818115234375	445.0566101074219	-104.2762603759766	-2849.347900390625	354.3066101074219	-278.7998962402344	-2167.002197265625	351.7300109863281	-123.0804824829102	-2245.72802734375	347.0965270996094	-114.0641250610352	-2823.2939453125	317.3768615722656	-374.36279296875	-2181.627197265625	158.7643737792969	-143.4796600341797	-1998.192749023438	196.0606689453125	-159.8502960205078	-2234.529052734375	122.6670227050781	-203.8066711425781	-2205.197021484375	102.0259704589844	-231.3294677734375	-2221.492431640625	93.64382934570312	-177.5411071777344	-2868.088134765625	361.3490905761719	-330.1627197265625
